<?xml version="1.0" encoding="UTF-8" standalone="no"?>
<!-- Created with Inkscape (http://www.inkscape.org/) -->

<svg
   xmlns:dc="http://purl.org/dc/elements/1.1/"
   xmlns:cc="http://creativecommons.org/ns#"
   xmlns:rdf="http://www.w3.org/1999/02/22-rdf-syntax-ns#"
   xmlns:svg="http://www.w3.org/2000/svg"
   xmlns="http://www.w3.org/2000/svg"
   xmlns:sodipodi="http://sodipodi.sourceforge.net/DTD/sodipodi-0.dtd"
   xmlns:inkscape="http://www.inkscape.org/namespaces/inkscape"
   width="64"
   height="64"
   id="svg3769"
   version="1.1"
   inkscape:version="0.91 r13725"
   sodipodi:docname="ie.svg">
  <defs
     id="defs3771" />
  <sodipodi:namedview
     id="base"
     pagecolor="#ffffff"
     bordercolor="#666666"
     borderopacity="1.0"
     inkscape:pageopacity="0.0"
     inkscape:pageshadow="2"
     inkscape:zoom="1.4"
     inkscape:cx="56.285918"
     inkscape:cy="111.42572"
     inkscape:document-units="px"
     inkscape:current-layer="layer1"
     showgrid="false"
     fit-margin-top="0"
     fit-margin-left="0"
     fit-margin-right="0"
     fit-margin-bottom="0"
     inkscape:window-width="1276"
     inkscape:window-height="755"
     inkscape:window-x="4"
     inkscape:window-y="0"
     inkscape:window-maximized="1" />
  <metadata
     id="metadata3774">
    <rdf:RDF>
      <cc:Work
         rdf:about="">
        <dc:format>image/svg+xml</dc:format>
        <dc:type
           rdf:resource="http://purl.org/dc/dcmitype/StillImage" />
        <dc:title></dc:title>
      </cc:Work>
    </rdf:RDF>
  </metadata>
  <g
     inkscape:label="Layer 1"
     inkscape:groupmode="layer"
     id="layer1"
     transform="translate(-393.71407,-351.21645)">
    <path
       id="svg"
       d="m 457.71429,385.2632 c 0,-5.05943 -1.3081,-9.81263 -3.60195,-13.94295 9.77744,-22.12843 -10.47667,-18.88728 -11.60437,-18.66663 -4.29103,0.83966 -8.26092,2.18771 -11.92281,3.89655 -0.53999,-0.0304 -1.08327,-0.0471 -1.63072,-0.0471 -13.66624,0 -25.10571,9.53205 -28.03348,22.31032 7.203,-8.08083 12.24394,-11.34137 15.26266,-12.64618 -0.48185,0.43056 -0.95356,0.8659 -1.41752,1.30451 -0.15445,0.14581 -0.30324,0.2937 -0.45561,0.44041 -0.30593,0.29429 -0.61126,0.58889 -0.90943,0.88617 -0.17742,0.17682 -0.35006,0.35513 -0.52479,0.53314 -0.26448,0.26925 -0.52837,0.5382 -0.78659,0.80895 -0.18337,0.19232 -0.36228,0.38524 -0.54237,0.57786 -0.24123,0.25822 -0.48096,0.51673 -0.71622,0.77615 -0.18278,0.20156 -0.36258,0.40313 -0.54208,0.60529 -0.22304,0.25106 -0.44398,0.50213 -0.66195,0.75379 -0.18069,0.20872 -0.3599,0.41744 -0.53701,0.62646 -0.20664,0.24391 -0.41059,0.48782 -0.61245,0.73172 -0.17861,0.21588 -0.35662,0.43146 -0.53135,0.64704 -0.18904,0.23317 -0.37391,0.46605 -0.55848,0.69862 -0.17891,0.22543 -0.35781,0.45055 -0.53254,0.67567 -0.16638,0.21439 -0.32799,0.42788 -0.4908,0.64167 -0.18367,0.24152 -0.36884,0.48304 -0.54774,0.72337 -0.12792,0.17205 -0.25077,0.34231 -0.3763,0.51376 -1.13634,1.55051 -2.17459,3.0712 -3.11235,4.53195 -0.002,0.004 -0.005,0.007 -0.007,0.0107 -0.24688,0.38464 -0.48513,0.76362 -0.7186,1.13932 -0.0125,0.0203 -0.0256,0.0408 -0.0382,0.0614 -0.23377,0.37719 -0.45949,0.74782 -0.67954,1.11458 -0.008,0.0128 -0.0158,0.0259 -0.0236,0.0388 -0.59158,0.98725 -1.14022,1.93903 -1.63429,2.83445 -2.59025,4.69416 -3.85123,7.97378 -3.90579,8.16849 -8.17953,29.24259 17.34899,16.89368 20.91128,15.05037 3.83572,1.8949 8.15389,2.96147 12.72192,2.96147 12.50545,0 23.14522,-7.98244 27.10557,-19.1297 l -15.11149,0 c -2.23601,3.77758 -6.54076,6.33622 -11.48628,6.33622 -7.24595,0 -13.11969,-5.49 -13.11969,-12.26244 l 41.13499,0 c 0.15594,-1.21297 0.23675,-2.4492 0.23675,-3.70422 z m -5.37251,-28.30155 c 2.47663,1.67157 4.46307,4.2967 1.05166,13.13728 -3.27187,-5.26189 -8.19444,-9.38952 -14.04522,-11.65833 2.6615,-1.28543 9.25266,-4.00419 12.99356,-1.47895 z m -52.63261,54.04148 c -2.01715,-2.06874 -2.37376,-7.10729 2.07739,-16.28869 2.24645,6.45876 6.7292,11.87063 12.52333,15.30531 -2.88156,1.58599 -10.53153,5.15693 -14.60072,0.98338 z m 16.56987,-29.90036 c 0.22989,-6.58221 5.95842,-11.85245 12.99684,-11.85245 7.03811,0 12.76694,5.27024 12.99683,11.85245 l -25.99367,0 z"
       style="fill:#1ebbee;fill-opacity:1"
       inkscape:connector-curvature="0" />
  </g>
</svg>
