<?xml version="1.0" encoding="UTF-8" standalone="no"?>
<svg width="64px" height="64px" viewBox="0 0 64 64" version="1.1" xmlns="http://www.w3.org/2000/svg" xmlns:xlink="http://www.w3.org/1999/xlink" xmlns:sketch="http://www.bohemiancoding.com/sketch/ns">
    <!-- Generator: Sketch 3.2.2 (9983) - http://www.bohemiancoding.com/sketch -->
    <title>Safari</title>
    <desc>Created with Sketch.</desc>
    <defs>
        <linearGradient x1="50%" y1="0%" x2="50%" y2="100%" id="linearGradient-1">
            <stop stop-color="#3DEBFF" offset="0%"></stop>
            <stop stop-color="#1E52EE" offset="100%"></stop>
        </linearGradient>
    </defs>
    <g id="Page-1" stroke="none" stroke-width="1" fill="none" fill-rule="evenodd" sketch:type="MSPage">
        <g id="safari" sketch:type="MSLayerGroup">
            <g id="Page-1" sketch:type="MSShapeGroup">
                <g id="SafariIcon">
                    <g id="Safari">
                        <circle id="Face" fill="url(#linearGradient-1)" cx="32" cy="32" r="32"></circle>
                        <path d="M31.6923077,2.42097357 L31.6923077,5.49789664 L32.3076923,5.49789664 L32.3076923,2.42097357 L31.6923077,2.42097357 L31.6923077,2.42097357 Z M34.2730581,2.50678329 L34.0048866,5.57199774 L34.6179295,5.62563204 L34.886101,2.56041759 L34.2730581,2.50678329 L34.2730581,2.50678329 Z M36.8365092,2.81719368 L36.3022071,5.8473714 L36.9082426,5.95423181 L37.4425447,2.9240541 L36.8365092,2.81719368 L36.8365092,2.81719368 Z M39.3631515,3.34984236 L38.5667851,6.32192184 L39.161201,6.48119509 L39.9575673,3.50911562 L39.3631515,3.34984236 L39.3631515,3.34984236 Z M41.8337557,4.10067556 L40.781386,6.99203745 L41.3596583,7.20251139 L42.412028,4.31114947 L41.8337557,4.10067556 L41.8337557,4.10067556 Z M44.2295191,5.06397892 L42.9291553,7.85261827 L43.486883,8.11269105 L44.787247,5.32405171 L44.2295191,5.06397892 L44.2295191,5.06397892 Z M46.5322085,6.2324212 L44.993747,8.89711475 L45.5266857,9.20480706 L47.0651473,6.5401135 L46.5322085,6.2324212 L46.5322085,6.2324212 Z M48.7242991,7.59710979 L46.9594484,10.1175776 L47.463542,10.4705477 L49.2283927,7.95007991 L48.7242991,7.59710979 L48.7242991,7.59710979 Z M50.7891076,9.14765861 L48.8112996,11.5047184 L49.2827115,11.90028 L51.2605196,9.5432202 L50.7891076,9.14765861 L50.7891076,9.14765861 Z M52.7109197,10.872267 L50.5352065,13.0479802 L50.970349,13.4831229 L53.1460622,11.3074097 L52.7109197,10.872267 L52.7109197,10.872267 Z M54.4751092,12.7578098 L52.1180494,14.7356178 L52.5136109,15.2070298 L54.8706708,13.2292217 L54.4751092,12.7578098 L54.4751092,12.7578098 Z M56.0682493,14.7899367 L53.5477817,16.5547872 L53.9007517,17.0588809 L56.4212196,15.2940302 L56.0682493,14.7899367 L56.0682493,14.7899367 Z M57.4782158,16.9531821 L54.8135222,18.4916436 L55.1212145,19.0245824 L57.7859081,17.4861208 L57.4782158,16.9531821 L57.4782158,16.9531821 Z M58.6942777,19.2310823 L55.9056383,20.5314462 L56.1657111,21.0891741 L58.9543503,19.7888102 L58.6942777,19.2310823 L58.6942777,19.2310823 Z M59.7071798,21.6063014 L56.8158178,22.6586709 L57.0262918,23.2369433 L59.9176537,22.1845736 L59.7071798,21.6063014 L59.7071798,21.6063014 Z M60.5092137,24.0607621 L57.5371343,24.8571283 L57.6964075,25.4515443 L60.6684869,24.6551778 L60.5092137,24.0607621 L60.5092137,24.0607621 Z M61.0942753,26.5757847 L58.0640975,27.1100867 L58.1709579,27.7161223 L61.2011356,27.1818202 L61.0942753,26.5757847 L61.0942753,26.5757847 Z M61.4579118,29.1322284 L58.3926973,29.4003999 L58.4463316,30.0134427 L61.511546,29.7452712 L61.4579118,29.1322284 L61.4579118,29.1322284 Z M61.5973558,31.710637 L58.5204327,31.710637 L58.5204327,32.3260217 L61.5973558,32.3260217 L61.5973558,31.710637 L61.5973558,31.710637 Z M61.511546,34.2913874 L58.4463316,34.023216 L58.3926973,34.6362588 L61.4579118,34.9044303 L61.511546,34.2913874 L61.511546,34.2913874 Z M61.2011356,36.8548385 L58.1709579,36.3205364 L58.0640975,36.9265719 L61.0942753,37.460874 L61.2011356,36.8548385 L61.2011356,36.8548385 Z M60.6684869,39.3814807 L57.6964075,38.5851144 L57.5371343,39.1795304 L60.5092137,39.9758966 L60.6684869,39.3814807 L60.6684869,39.3814807 Z M59.9176537,41.8520851 L57.0262918,40.7997154 L56.8158178,41.3779876 L59.7071798,42.4303573 L59.9176537,41.8520851 L59.9176537,41.8520851 Z M58.9543503,44.2478485 L56.1657111,42.9474846 L55.9056383,43.5052124 L58.6942777,44.8055764 L58.9543503,44.2478485 L58.9543503,44.2478485 Z M57.7859081,46.5505378 L55.1212145,45.0120763 L54.8135222,45.5450151 L57.4782158,47.0834766 L57.7859081,46.5505378 L57.7859081,46.5505378 Z M56.4212196,48.7426285 L53.9007517,46.9777778 L53.5477817,47.4818713 L56.0682493,49.246722 L56.4212196,48.7426285 L56.4212196,48.7426285 Z M54.8706708,50.8074369 L52.5136109,48.8296289 L52.1180494,49.3010409 L54.4751092,51.2788489 L54.8706708,50.8074369 L54.8706708,50.8074369 Z M53.1460622,52.729249 L50.970349,50.5535358 L50.5352065,50.9886784 L52.7109197,53.1643916 L53.1460622,52.729249 L53.1460622,52.729249 Z M51.2605196,54.4934384 L49.2827115,52.1363785 L48.8112996,52.5319403 L50.7891076,54.8890001 L51.2605196,54.4934384 L51.2605196,54.4934384 Z M49.2283927,56.0865787 L47.463542,53.566111 L46.9594484,53.919081 L48.7242991,56.4395489 L49.2283927,56.0865787 L49.2283927,56.0865787 Z M47.0651473,57.4965452 L45.5266857,54.8318516 L44.993747,55.1395439 L46.5322085,57.8042375 L47.0651473,57.4965452 L47.0651473,57.4965452 Z M44.787247,58.712607 L43.486883,55.9239676 L42.9291553,56.1840403 L44.2295191,58.9726797 L44.787247,58.712607 L44.787247,58.712607 Z M42.412028,59.7255091 L41.3596583,56.8341472 L40.781386,57.0446211 L41.8337557,59.935983 L42.412028,59.7255091 L42.412028,59.7255091 Z M39.9575673,60.5275431 L39.161201,57.5554635 L38.5667851,57.7147369 L39.3631515,60.6868163 L39.9575673,60.5275431 L39.9575673,60.5275431 Z M37.4425447,61.1126046 L36.9082426,58.0824269 L36.3022071,58.1892872 L36.8365092,61.2194649 L37.4425447,61.1126046 L37.4425447,61.1126046 Z M34.886101,61.4762411 L34.6179295,58.4110266 L34.0048866,58.464661 L34.2730581,61.5298753 L34.886101,61.4762411 L34.886101,61.4762411 Z M32.3076923,61.6156851 L32.3076923,58.538762 L31.6923077,58.538762 L31.6923077,61.6156851 L32.3076923,61.6156851 L32.3076923,61.6156851 Z M29.7269419,61.5298753 L29.9951134,58.464661 L29.3820705,58.4110266 L29.113899,61.4762411 L29.7269419,61.5298753 L29.7269419,61.5298753 Z M27.1634908,61.2194649 L27.6977929,58.1892872 L27.0917574,58.0824269 L26.5574553,61.1126046 L27.1634908,61.2194649 L27.1634908,61.2194649 Z M24.6368485,60.6868163 L25.4332149,57.7147369 L24.838799,57.5554635 L24.0424327,60.5275431 L24.6368485,60.6868163 L24.6368485,60.6868163 Z M22.1662443,59.935983 L23.218614,57.0446211 L22.6403417,56.8341472 L21.587972,59.7255091 L22.1662443,59.935983 L22.1662443,59.935983 Z M19.7704809,58.9726797 L21.0708447,56.1840403 L20.513117,55.9239676 L19.212753,58.712607 L19.7704809,58.9726797 L19.7704809,58.9726797 Z M17.4677915,57.8042375 L19.006253,55.1395439 L18.4733143,54.8318516 L16.9348527,57.4965452 L17.4677915,57.8042375 L17.4677915,57.8042375 Z M15.2757009,56.4395489 L17.0405516,53.919081 L16.536458,53.566111 L14.7716073,56.0865787 L15.2757009,56.4395489 L15.2757009,56.4395489 Z M13.2108924,54.8890001 L15.1887004,52.5319403 L14.7172885,52.1363785 L12.7394805,54.4934384 L13.2108924,54.8890001 L13.2108924,54.8890001 Z M11.2890803,53.1643916 L13.4647935,50.9886784 L13.0296509,50.5535358 L10.8539377,52.729249 L11.2890803,53.1643916 L11.2890803,53.1643916 Z M9.52489088,51.2788489 L11.8819507,49.3010409 L11.4863891,48.8296289 L9.12932929,50.8074369 L9.52489088,51.2788489 L9.52489088,51.2788489 Z M7.93175058,49.246722 L10.4522184,47.4818713 L10.0992483,46.9777778 L7.57878046,48.7426285 L7.93175058,49.246722 L7.93175058,49.246722 Z M6.52178418,47.0834766 L9.18647773,45.5450151 L8.87878542,45.0120763 L6.21409187,46.5505378 L6.52178418,47.0834766 L6.52178418,47.0834766 Z M5.30572238,44.8055764 L8.09436173,43.5052124 L7.83428894,42.9474846 L5.0456496,44.2478485 L5.30572238,44.8055764 L5.30572238,44.8055764 Z M4.29282015,42.4303573 L7.18418206,41.3779876 L6.97370813,40.7997154 L4.08234623,41.8520851 L4.29282015,42.4303573 L4.29282015,42.4303573 Z M3.4907863,39.9758966 L6.46286576,39.1795304 L6.30359252,38.5851144 L3.33151303,39.3814807 L3.4907863,39.9758966 L3.4907863,39.9758966 Z M2.90572477,37.460874 L5.93590249,36.9265719 L5.82904207,36.3205364 L2.79886436,36.8548385 L2.90572477,37.460874 L2.90572477,37.460874 Z M2.54208826,34.9044303 L5.60730271,34.6362588 L5.55366841,34.023216 L2.48845396,34.2913874 L2.54208826,34.9044303 L2.54208826,34.9044303 Z M2.40264424,32.3260217 L5.47956732,32.3260217 L5.47956732,31.710637 L2.40264424,31.710637 L2.40264424,32.3260217 L2.40264424,32.3260217 Z M2.48845396,29.7452712 L5.55366841,30.0134427 L5.60730271,29.4003999 L2.54208826,29.1322284 L2.48845396,29.7452712 L2.48845396,29.7452712 Z M2.79886436,27.1818202 L5.82904207,27.7161223 L5.93590249,27.1100867 L2.90572477,26.5757847 L2.79886436,27.1818202 L2.79886436,27.1818202 Z M3.33151303,24.6551778 L6.30359252,25.4515443 L6.46286576,24.8571283 L3.4907863,24.0607621 L3.33151303,24.6551778 L3.33151303,24.6551778 Z M4.08234623,22.1845736 L6.97370813,23.2369433 L7.18418206,22.6586709 L4.29282015,21.6063014 L4.08234623,22.1845736 L4.08234623,22.1845736 Z M5.0456496,19.7888102 L7.83428894,21.0891741 L8.09436173,20.5314462 L5.30572238,19.2310823 L5.0456496,19.7888102 L5.0456496,19.7888102 Z M6.21409187,17.4861208 L8.87878542,19.0245824 L9.18647773,18.4916436 L6.52178418,16.9531821 L6.21409187,17.4861208 L6.21409187,17.4861208 Z M7.57878046,15.2940302 L10.0992483,17.0588809 L10.4522184,16.5547872 L7.93175058,14.7899367 L7.57878046,15.2940302 L7.57878046,15.2940302 Z M9.12932929,13.2292217 L11.4863891,15.2070298 L11.8819507,14.7356178 L9.52489088,12.7578098 L9.12932929,13.2292217 L9.12932929,13.2292217 Z M10.8539377,11.3074097 L13.0296509,13.4831229 L13.4647935,13.0479802 L11.2890803,10.872267 L10.8539377,11.3074097 L10.8539377,11.3074097 Z M12.7394805,9.5432202 L14.7172885,11.90028 L15.1887004,11.5047184 L13.2108924,9.14765861 L12.7394805,9.5432202 L12.7394805,9.5432202 Z M14.7716073,7.95007991 L16.536458,10.4705477 L17.0405516,10.1175776 L15.2757009,7.59710979 L14.7716073,7.95007991 L14.7716073,7.95007991 Z M16.9348527,6.5401135 L18.4733143,9.20480706 L19.006253,8.89711475 L17.4677915,6.2324212 L16.9348527,6.5401135 L16.9348527,6.5401135 Z M19.212753,5.32405171 L20.513117,8.11269105 L21.0708447,7.85261827 L19.7704809,5.06397892 L19.212753,5.32405171 L19.212753,5.32405171 Z M21.587972,4.31114947 L22.6403417,7.20251139 L23.218614,6.99203745 L22.1662443,4.10067556 L21.587972,4.31114947 L21.587972,4.31114947 Z M24.0424327,3.50911562 L24.838799,6.48119509 L25.4332149,6.32192184 L24.6368485,3.34984236 L24.0424327,3.50911562 L24.0424327,3.50911562 Z M26.5574553,2.9240541 L27.0917574,5.95423181 L27.6977929,5.8473714 L27.1634908,2.81719368 L26.5574553,2.9240541 L26.5574553,2.9240541 Z M29.113899,2.56041759 L29.3820705,5.62563204 L29.9951134,5.57199774 L29.7269419,2.50678329 L29.113899,2.56041759 L29.113899,2.56041759 Z" id="Smaller-Notches" fill="#FFFFFF"></path>
                        <path d="M31.7043269,2.46153846 L31.7043269,8 L32.3197115,8 L32.3197115,2.46153846 L31.7043269,2.46153846 L31.7043269,2.46153846 Z M36.8403886,2.85704646 L35.8786449,8.31136633 L36.4846804,8.41822674 L37.4464241,2.96390688 L36.8403886,2.85704646 L36.8403886,2.85704646 Z M41.8297427,4.13841355 L39.9354772,9.34286498 L40.5137497,9.55333891 L42.4080151,4.34888748 L41.8297427,4.13841355 L41.8297427,4.13841355 Z M46.5207902,6.26670603 L43.7515595,11.0631544 L44.2844982,11.3708467 L47.053729,6.57439834 L46.5207902,6.26670603 L46.5207902,6.26670603 Z M50.7709961,9.17725684 L47.2109416,13.4199645 L47.6823536,13.8155261 L51.2424081,9.57281845 L50.7709961,9.17725684 L50.7709961,9.17725684 Z M54.4512201,12.7816303 L50.2085124,16.3416849 L50.6040739,16.8130968 L54.8467816,13.2530423 L54.4512201,12.7816303 L54.4512201,12.7816303 Z M57.4496401,16.9703095 L52.6531917,19.7395402 L52.960884,20.272479 L57.7573324,17.5032482 L57.4496401,16.9703095 L57.4496401,16.9703095 Z M59.675151,21.6160233 L54.4706996,23.5102888 L54.6811735,24.0885612 L59.8856249,22.1942958 L59.675151,21.6160233 L59.675151,21.6160233 Z M61.0601316,26.5776144 L55.6058118,27.5393581 L55.7126721,28.1453936 L61.166992,27.1836499 L61.0601316,26.5776144 L61.0601316,26.5776144 Z M61.5625,31.7043269 L56.0240385,31.7043269 L56.0240385,32.3197115 L61.5625,32.3197115 L61.5625,31.7043269 L61.5625,31.7043269 Z M61.166992,36.8403886 L55.7126721,35.8786449 L55.6058118,36.4846804 L61.0601316,37.4464241 L61.166992,36.8403886 L61.166992,36.8403886 Z M59.8856249,41.8297427 L54.6811735,39.9354772 L54.4706996,40.5137497 L59.675151,42.4080151 L59.8856249,41.8297427 L59.8856249,41.8297427 Z M57.7573324,46.5207902 L52.960884,43.7515595 L52.6531917,44.2844982 L57.4496401,47.053729 L57.7573324,46.5207902 L57.7573324,46.5207902 Z M54.8467816,50.7709961 L50.6040739,47.2109416 L50.2085124,47.6823536 L54.4512201,51.2424081 L54.8467816,50.7709961 L54.8467816,50.7709961 Z M51.2424081,54.4512201 L47.6823536,50.2085124 L47.2109416,50.6040739 L50.7709961,54.8467816 L51.2424081,54.4512201 L51.2424081,54.4512201 Z M47.053729,57.4496401 L44.2844982,52.6531917 L43.7515595,52.960884 L46.5207902,57.7573324 L47.053729,57.4496401 L47.053729,57.4496401 Z M42.4080151,59.675151 L40.5137497,54.4706996 L39.9354772,54.6811735 L41.8297427,59.8856249 L42.4080151,59.675151 L42.4080151,59.675151 Z M37.4464241,61.0601316 L36.4846804,55.6058118 L35.8786449,55.7126721 L36.8403886,61.166992 L37.4464241,61.0601316 L37.4464241,61.0601316 Z M32.3197115,61.5625 L32.3197115,56.0240385 L31.7043269,56.0240385 L31.7043269,61.5625 L32.3197115,61.5625 L32.3197115,61.5625 Z M27.1836499,61.166992 L28.1453936,55.7126721 L27.5393581,55.6058118 L26.5776144,61.0601316 L27.1836499,61.166992 L27.1836499,61.166992 Z M22.1942958,59.8856249 L24.0885612,54.6811735 L23.5102888,54.4706996 L21.6160233,59.675151 L22.1942958,59.8856249 L22.1942958,59.8856249 Z M17.5032482,57.7573324 L20.272479,52.960884 L19.7395402,52.6531917 L16.9703095,57.4496401 L17.5032482,57.7573324 L17.5032482,57.7573324 Z M13.2530423,54.8467816 L16.8130968,50.6040739 L16.3416849,50.2085124 L12.7816303,54.4512201 L13.2530423,54.8467816 L13.2530423,54.8467816 Z M9.57281845,51.2424081 L13.8155261,47.6823536 L13.4199645,47.2109416 L9.17725684,50.7709961 L9.57281845,51.2424081 L9.57281845,51.2424081 Z M6.57439834,47.053729 L11.3708467,44.2844982 L11.0631544,43.7515595 L6.26670603,46.5207902 L6.57439834,47.053729 L6.57439834,47.053729 Z M4.34888748,42.4080151 L9.55333891,40.5137497 L9.34286498,39.9354772 L4.13841355,41.8297427 L4.34888748,42.4080151 L4.34888748,42.4080151 Z M2.96390688,37.4464241 L8.41822674,36.4846804 L8.31136633,35.8786449 L2.85704646,36.8403886 L2.96390688,37.4464241 L2.96390688,37.4464241 Z M2.46153846,32.3197115 L8,32.3197115 L8,31.7043269 L2.46153846,31.7043269 L2.46153846,32.3197115 L2.46153846,32.3197115 Z M2.85704646,27.1836499 L8.31136633,28.1453936 L8.41822674,27.5393581 L2.96390688,26.5776144 L2.85704646,27.1836499 L2.85704646,27.1836499 Z M4.13841355,22.1942958 L9.34286498,24.0885612 L9.55333891,23.5102888 L4.34888748,21.6160233 L4.13841355,22.1942958 L4.13841355,22.1942958 Z M6.26670603,17.5032482 L11.0631544,20.272479 L11.3708467,19.7395402 L6.57439834,16.9703095 L6.26670603,17.5032482 L6.26670603,17.5032482 Z M9.17725684,13.2530423 L13.4199645,16.8130968 L13.8155261,16.3416849 L9.57281845,12.7816303 L9.17725684,13.2530423 L9.17725684,13.2530423 Z M12.7816303,9.57281845 L16.3416849,13.8155261 L16.8130968,13.4199645 L13.2530423,9.17725684 L12.7816303,9.57281845 L12.7816303,9.57281845 Z M16.9703095,6.57439834 L19.7395402,11.3708467 L20.272479,11.0631544 L17.5032482,6.26670603 L16.9703095,6.57439834 L16.9703095,6.57439834 Z M21.6160233,4.34888748 L23.5102888,9.55333891 L24.0885612,9.34286498 L22.1942958,4.13841355 L21.6160233,4.34888748 L21.6160233,4.34888748 Z M26.5776144,2.96390688 L27.5393581,8.41822674 L28.1453936,8.31136633 L27.1836499,2.85704646 L26.5776144,2.96390688 L26.5776144,2.96390688 Z" id="Larger-Notches" fill="#FFFFFF"></path>
                        <g id="Needle" transform="translate(32.048349, 32.048349) rotate(45.000000) translate(-32.048349, -32.048349) translate(27.672281, 0.048349)">
                            <path d="M4.30769231,1.4033219e-13 L8.61538462,32 L5.59552404e-13,32 L4.30769231,1.4033219e-13 Z" id="Top-Point" fill="#FF1414"></path>
                            <path d="M4.30769231,32 L8.61538462,64 L5.77315973e-13,64 L4.30769231,32 Z" id="Bottom-Point" fill="#FFFFFF" transform="translate(4.307692, 48.000000) scale(1, -1) translate(-4.307692, -48.000000) "></path>
                        </g>
                    </g>
                </g>
            </g>
        </g>
    </g>
</svg>